<?xml version="1.0" standalone="no"?>
<!DOCTYPE svg PUBLIC "-//W3C//DTD SVG 20010904//EN"
 "http://www.w3.org/TR/2001/REC-SVG-20010904/DTD/svg10.dtd">
<svg version="1.0" xmlns="http://www.w3.org/2000/svg"
 width="599.000000pt" height="599.000000pt" viewBox="0 0 599.000000 599.000000"
 preserveAspectRatio="xMidYMid meet">
<metadata>
Created by potrace 1.11, written by Peter Selinger 2001-2013
</metadata>
<g transform="translate(0.000000,599.000000) scale(0.100000,-0.100000)"
fill="#000000" stroke="none">
<path d="M3042 5411 c-8 -4 -12 -10 -10 -13 4 -7 -35 -78 -44 -78 -20 0 -17
25 6 46 61 58 9 33 -82 -38 -53 -41 -99 -68 -118 -68 -7 0 -5 36 3 44 4 3 12
23 19 42 l12 36 -30 -28 -30 -29 7 28 c12 46 -1 30 -25 -30 -13 -32 -29 -65
-37 -73 -11 -12 -13 -12 -15 5 0 11 -2 26 -2 33 -1 7 -6 16 -12 20 -6 4 -19
22 -28 40 -9 18 -21 30 -27 27 -9 -6 -38 -67 -43 -90 -5 -23 -32 -64 -41 -62
-12 2 -57 -81 -50 -93 3 -4 0 -19 -5 -32 -9 -21 -10 -20 -5 7 5 21 3 27 -4 20
-6 -6 -13 -26 -15 -43 -6 -58 -21 -44 -18 18 0 3 -6 11 -14 18 -8 7 -14 9 -14
4 0 -4 -8 -17 -18 -28 -10 -10 -24 -34 -31 -51 -7 -18 -17 -30 -22 -27 -5 2
-11 -6 -15 -20 -3 -13 -16 -33 -27 -42 -12 -10 -16 -12 -9 -4 16 18 16 44 0
34 -11 -7 10 33 55 101 11 17 51 61 90 98 38 37 67 70 65 73 -3 2 -11 -2 -17
-10 -7 -8 -19 -12 -26 -10 -10 4 -7 12 13 31 l27 25 -30 -17 c-59 -35 -115
-87 -151 -141 -20 -29 -38 -54 -40 -54 -11 0 45 85 74 113 19 18 38 41 44 52
9 16 3 13 -28 -10 -21 -16 -46 -39 -55 -50 -50 -62 -59 -70 -53 -50 5 14 -2
11 -25 -13 -17 -18 -31 -37 -31 -41 0 -15 -63 -96 -67 -85 -5 15 53 142 83
181 14 18 22 33 17 33 -11 0 -82 -82 -89 -102 -3 -10 -10 -18 -15 -18 -5 0
-16 -18 -25 -40 -18 -43 -28 -49 -42 -23 -9 15 -10 14 -15 -3 -3 -10 -9 -46
-13 -79 -5 -47 -9 -55 -15 -37 -14 38 -22 24 -17 -30 4 -39 1 -59 -14 -85 -11
-18 -24 -33 -29 -33 -14 0 -52 -46 -76 -93 -16 -32 -19 -45 -10 -55 9 -11 7
-17 -5 -26 -11 -8 -21 -38 -28 -82 -6 -38 -13 -82 -16 -97 l-6 -28 -31 43
c-17 24 -80 120 -140 213 -170 264 -237 347 -237 291 0 -21 42 -119 65 -151
27 -36 114 -235 144 -325 11 -36 37 -96 57 -135 19 -38 42 -90 50 -115 20 -59
85 -193 99 -203 6 -5 4 -12 -8 -21 -16 -12 -14 -16 20 -42 49 -36 53 -42 53
-84 0 -20 5 -41 12 -48 9 -9 8 -15 -8 -27 -18 -14 -18 -14 6 -15 15 0 42 -16
68 -41 45 -44 47 -46 32 -69 -8 -12 -15 -11 -55 8 l-46 22 -9 -26 c-16 -41
-11 -135 9 -180 26 -57 24 -63 -123 -317 -31 -55 -53 -104 -49 -110 3 -7 3 -9
-2 -5 -11 10 -44 -34 -38 -50 4 -9 17 -2 44 24 21 20 35 42 32 48 -3 6 -3 8 2
4 5 -5 31 13 59 40 29 26 72 65 96 88 25 22 55 51 67 65 24 26 49 49 98 89 25
20 24 18 -7 -15 l-37 -40 25 -18 c13 -10 24 -27 24 -37 0 -22 30 -90 40 -90
15 0 60 -111 75 -184 26 -132 69 -251 87 -240 5 3 7 2 6 -3 -1 -4 3 -29 11
-54 10 -38 11 -51 0 -70 -11 -22 -11 -23 4 -10 10 7 17 28 17 45 0 23 3 27 10
16 5 -8 7 -26 4 -40 -4 -17 -3 -21 4 -12 13 19 25 17 32 -4 8 -21 -9 -44 -27
-37 -23 9 -14 -17 15 -44 18 -18 21 -24 9 -20 -16 6 -18 3 -12 -24 4 -17 8
-37 9 -43 1 -6 5 -17 9 -23 5 -8 3 -13 -5 -13 -10 0 -9 -3 2 -11 11 -8 12 -12
3 -16 -10 -3 -9 -8 2 -19 8 -8 19 -41 26 -74 7 -39 17 -60 25 -60 12 0 12 -4
2 -20 -26 -41 -49 8 -120 255 -11 39 -28 97 -38 130 l-19 60 -1 -70 c0 -38 -5
-88 -10 -110 -5 -23 -5 -42 0 -45 10 -6 7 -71 -5 -90 -15 -24 -29 -310 -16
-310 5 0 9 -11 9 -25 0 -15 -6 -25 -14 -25 -8 0 -14 -6 -14 -14 0 -23 -22 -31
-32 -11 -6 9 -21 27 -35 38 -21 19 -24 28 -19 60 5 28 3 39 -9 43 -8 4 -15 17
-15 31 0 13 4 21 10 18 6 -3 10 -1 10 4 0 6 -5 11 -12 11 -6 0 -4 7 5 18 10
10 17 24 17 30 0 6 8 16 18 21 9 6 13 11 8 11 -5 0 -3 6 3 13 6 8 17 30 26 50
13 32 13 36 0 31 -8 -4 -18 -17 -21 -30 -3 -13 -15 -26 -25 -29 -10 -4 -19
-13 -19 -21 0 -8 -14 -20 -32 -27 -29 -12 -32 -18 -48 -97 -10 -47 -14 -89
-10 -95 4 -5 11 -28 14 -49 6 -33 42 -116 75 -176 5 -8 25 -49 45 -90 20 -41
52 -100 71 -130 20 -30 47 -75 62 -100 37 -61 64 -90 91 -95 20 -3 21 -2 11
17 -9 17 -13 18 -20 7 -5 -8 -9 -9 -9 -4 0 6 5 16 12 23 7 7 8 12 2 12 -13 0
-37 58 -30 75 3 8 10 15 16 15 6 0 8 -5 4 -12 -5 -8 4 -9 34 -5 28 5 42 3 45
-6 4 -9 7 -9 14 0 7 9 12 8 23 -7 10 -14 17 -16 27 -9 7 6 20 9 28 5 19 -7 47
3 39 15 -10 16 24 21 61 9 36 -12 85 -50 85 -66 0 -27 118 -114 153 -114 14 0
29 -5 32 -10 3 -5 15 -10 26 -10 12 0 17 -4 14 -11 -4 -6 0 -9 11 -7 11 2 18
-2 17 -9 -2 -8 7 -13 21 -13 19 0 23 5 21 25 -2 14 1 25 7 25 6 0 8 -7 4 -15
-7 -19 3 -19 27 -1 14 11 15 15 5 19 -7 2 -1 3 14 1 15 -2 30 1 33 6 3 6 1 10
-5 10 -6 0 -8 5 -5 10 4 6 11 8 16 4 5 -3 15 -1 22 4 7 5 36 15 65 22 28 6 52
17 52 23 0 18 52 40 61 25 9 -14 57 -13 106 2 84 26 93 28 93 23 0 -11 -24
-50 -47 -74 -14 -15 -25 -39 -25 -57 -1 -17 -6 -29 -12 -28 -6 2 -7 1 -3 -2 4
-2 3 -10 -4 -18 -6 -8 -16 -11 -22 -7 -5 3 -7 1 -3 -5 3 -5 0 -12 -6 -15 -7
-2 -10 -7 -7 -11 13 -14 36 8 81 77 49 77 203 412 211 462 3 17 10 44 17 60 6
17 12 56 13 87 0 32 4 58 9 58 4 0 8 7 8 16 0 8 4 13 9 10 8 -5 12 15 13 72 0
22 -34 68 -103 142 -39 41 -75 114 -90 179 -6 25 -12 109 -15 186 -5 148 4
216 37 271 27 45 23 54 -6 14 -28 -39 -51 -46 -58 -20 -5 21 14 90 25 90 4 0
5 20 1 45 -4 31 -2 45 6 45 6 0 11 -10 11 -22 1 -39 45 59 60 132 8 36 19 75
26 88 11 22 11 22 17 -7 5 -25 -15 -124 -38 -183 -4 -10 -3 -18 2 -18 5 0 20
35 32 78 16 52 34 89 57 115 28 31 34 45 34 85 0 26 7 65 15 87 8 22 14 73 15
113 0 59 5 83 27 125 28 53 30 71 20 129 -6 33 -6 33 40 -22 26 -30 78 -86
116 -125 54 -55 70 -66 77 -55 6 10 3 21 -11 35 -10 11 -78 97 -149 190 -71
94 -148 192 -172 219 -24 27 -49 58 -57 69 -13 18 -12 18 15 -2 33 -24 133
-134 150 -164 11 -19 11 -19 17 4 4 13 7 34 7 46 0 15 7 24 23 27 118 22 275
43 389 52 77 6 109 20 69 31 -11 3 -18 10 -15 17 3 6 -2 2 -10 -8 -10 -12 -16
-15 -16 -7 0 9 -8 11 -22 8 -13 -3 -43 3 -68 14 -42 18 -43 19 -10 13 49 -9
37 -1 -55 36 -44 18 -96 41 -116 51 -20 10 -50 19 -66 19 -17 0 -40 9 -52 19
-13 11 -30 17 -38 14 -11 -4 -14 -2 -9 5 4 7 1 15 -8 18 -9 3 -16 12 -16 20 0
8 -6 13 -12 11 -8 -1 -14 12 -16 36 -2 20 -7 37 -12 37 -6 0 -5 11 0 26 6 15
6 32 1 42 -10 19 3 56 41 118 14 21 44 77 68 124 24 47 54 99 66 115 12 17 43
71 69 120 26 50 63 118 81 151 28 52 31 63 18 68 -11 4 -19 -5 -30 -32 -46
-117 -100 -219 -111 -209 -2 3 0 14 6 25 16 29 14 39 -3 16 -24 -33 -28 -9 -5
32 11 22 26 45 31 52 6 7 8 15 4 19 -3 3 -31 -19 -61 -50 -30 -32 -58 -57 -63
-57 -5 0 -69 -58 -143 -130 -74 -71 -142 -129 -151 -130 -10 0 -18 -4 -18 -10
0 -13 -47 -57 -93 -86 -39 -26 -53 -37 -161 -132 -109 -96 -116 -102 -122
-102 -3 0 -2 5 2 12 4 6 3 8 -3 5 -34 -21 -274 -60 -360 -58 -13 0 -51 -26
-97 -68 -106 -96 -138 -111 -234 -104 -49 3 -89 12 -111 25 l-34 19 -33 -36
c-18 -20 -42 -53 -53 -75 -11 -22 -29 -48 -40 -59 -12 -12 -34 -45 -51 -75
-33 -58 -57 -72 -88 -50 -10 7 -56 26 -102 41 -75 26 -114 52 -98 68 3 3 23
-1 43 -9 29 -12 41 -13 51 -5 11 9 14 8 14 -3 0 -8 21 -21 51 -30 56 -18 71
-9 50 31 -14 25 3 38 26 20 13 -11 17 -10 29 6 8 10 17 15 21 12 14 -14 143
147 143 179 0 2 -13 4 -29 4 -18 0 -32 7 -36 18 -7 16 -8 15 -15 -3 -8 -19 -9
-19 -9 3 -1 12 3 22 8 22 5 0 11 13 13 30 4 24 2 27 -9 18 -7 -6 -17 -8 -21
-4 -4 4 1 13 11 20 16 13 25 32 9 22 -4 -2 -7 21 -7 52 1 32 -3 62 -7 68 -12
16 -17 93 -7 100 5 3 9 -5 9 -18 1 -21 2 -22 14 -5 10 13 19 15 37 9 15 -5 39
-4 62 3 34 10 37 13 23 24 -9 7 -16 19 -16 25 0 6 5 3 11 -6 11 -19 39 -25 39
-8 0 6 5 10 11 10 6 0 42 16 80 35 68 34 159 50 144 25 -4 -7 8 -9 34 -5 23 3
41 1 41 -3 0 -4 9 -13 21 -20 19 -12 20 -11 14 7 -7 22 13 24 38 2 9 -7 24
-11 34 -9 9 2 18 -3 19 -9 3 -24 4 -25 17 -15 10 9 19 7 35 -4 23 -16 110 -12
160 7 13 5 28 7 32 4 5 -3 18 3 29 14 20 20 71 36 71 23 0 -4 -7 -20 -15 -36
-9 -16 -14 -31 -12 -33 10 -9 55 18 81 50 26 32 33 34 70 30 40 -5 75 -23 46
-23 -13 0 -13 -2 0 -10 10 -6 11 -10 3 -10 -9 0 -10 -7 -5 -22 12 -34 4 -61
-16 -53 -13 5 -14 3 -6 -5 13 -13 120 69 212 162 52 54 52 54 47 107 -5 56
-14 78 -30 82 -23 5 -45 25 -45 42 0 11 -4 15 -12 11 -8 -5 -10 2 -6 22 3 16
2 40 -2 54 -7 22 -8 20 -9 -13 -1 -41 -21 -43 -21 -3 0 55 -136 256 -173 256
-6 0 0 -12 14 -27 52 -58 52 -66 1 -23 -30 25 -61 58 -69 75 -26 51 -86 146
-90 142 -4 -5 22 -72 42 -109 8 -14 15 -32 15 -40 -1 -7 -7 -2 -14 11 -11 20
-13 10 -13 -82 -1 -58 -7 -131 -13 -163 -15 -72 -58 -164 -76 -164 -7 0 -22
-19 -33 -42 -19 -42 -19 -42 -20 -13 -1 55 53 254 73 267 6 4 13 47 17 95 3
48 9 98 13 110 6 18 4 22 -8 17 -9 -3 -14 -9 -12 -13 2 -3 -2 -15 -11 -26 -13
-19 -14 -18 -8 10 4 17 11 45 17 63 14 48 3 51 -24 6 -19 -32 -23 -35 -26 -19
-2 11 -11 28 -20 38 -8 9 -18 33 -21 52 -4 25 -9 32 -19 26z m18 -71 c0 -9 -9
-16 -19 -17 -17 -1 -18 2 -9 29 8 22 13 26 19 16 5 -7 9 -20 9 -28z m-641
-152 c-26 -24 -58 -61 -72 -83 -34 -53 -66 -92 -67 -82 0 5 8 21 19 35 10 15
20 33 22 39 7 23 114 132 129 132 8 1 -6 -18 -31 -41z m831 10 c0 -19 -2 -20
-10 -8 -13 19 -13 30 0 30 6 0 10 -10 10 -22z m-193 -72 c4 -34 1 -80 -8 -114
-23 -99 -59 -107 -40 -9 7 37 6 50 -4 53 -11 5 -13 18 -5 44 1 3 5 -4 9 -15 6
-14 11 -1 16 48 9 80 23 77 32 -7z m313 -12 c19 -25 50 -61 68 -80 32 -33 35
-54 7 -54 -7 0 -15 -5 -17 -11 -3 -8 -10 -6 -21 5 -16 16 -17 14 -23 -25 -4
-23 -15 -49 -25 -57 -9 -8 -15 -21 -12 -29 6 -15 -25 -68 -34 -59 -4 3 1 14
10 24 18 19 17 19 17 142 0 78 1 83 15 65 15 -19 16 -18 9 15 -3 19 -15 52
-25 73 -26 50 -12 46 31 -9z m-746 -29 c5 -61 3 -105 -5 -105 -4 0 -12 -20
-18 -44 -6 -24 -27 -63 -46 -86 -19 -23 -35 -46 -35 -51 0 -22 -19 -6 -33 29
-9 20 -16 30 -17 22 0 -12 -2 -13 -9 -1 -10 15 -3 43 28 114 22 51 28 83 11
57 -11 -17 -3 35 12 80 6 19 7 15 3 -15 -3 -28 -2 -35 5 -25 5 8 10 25 10 37
0 30 20 40 21 11 1 -23 1 -23 10 2 6 17 16 25 34 25 22 0 25 -5 29 -50z m-208
-7 c-18 -26 -22 -17 -5 14 6 11 13 17 16 15 3 -3 -2 -16 -11 -29z m497 17 c-3
-9 -8 -14 -10 -11 -3 3 -2 9 2 15 9 16 15 13 8 -4z m-798 -105 c-4 -12 -9 -19
-12 -17 -3 3 -2 15 2 27 4 12 9 19 12 17 3 -3 2 -15 -2 -27z m726 -37 c-12
-20 -14 -14 -5 12 4 9 9 14 11 11 3 -2 0 -13 -6 -23z m26 -5 c-3 -8 -6 -5 -6
6 -1 11 2 17 5 13 3 -3 4 -12 1 -19z m1023 -274 c0 -15 -4 -23 -11 -19 -6 4
-9 1 -7 -8 2 -8 -35 -74 -82 -147 -176 -274 -200 -312 -200 -323 0 -8 -3 -8
-11 0 -8 8 0 32 32 90 74 135 149 254 195 310 24 30 51 70 60 89 19 41 24 42
24 8z m-1993 -310 c-3 -20 -1 -24 12 -19 12 5 13 3 4 -6 -16 -16 -36 -1 -30
23 4 15 2 18 -10 14 -11 -5 -14 -2 -9 10 3 8 6 23 6 32 0 13 4 11 16 -6 9 -13
14 -34 11 -48z m85 -16 c-6 -6 -7 0 -4 19 5 21 7 23 10 9 2 -10 0 -22 -6 -28z
m11 -65 c4 -18 3 -33 -2 -33 -10 0 -21 57 -13 65 7 7 8 5 15 -32z m1104 11
c-3 -3 -12 -4 -19 -1 -8 3 -5 6 6 6 11 1 17 -2 13 -5z m-140 -19 c0 -10 -10
-15 -26 -15 l-26 0 25 14 c14 8 25 14 26 15 0 1 1 -6 1 -14z m-75 -12 c-8 -3
-2 -24 24 -71 20 -37 28 -58 19 -47 -8 11 -23 29 -33 40 -9 11 -22 32 -29 47
-12 27 -6 36 22 36 6 0 4 -2 -3 -5z m-612 -24 c12 -8 11 -9 -5 -7 -15 2 -19
-2 -17 -17 2 -15 1 -17 -7 -6 -9 14 -4 41 8 41 3 0 13 -5 21 -11z m570 -9 c0
-5 -7 -10 -16 -10 -8 0 -12 5 -9 10 3 6 10 10 16 10 5 0 9 -4 9 -10z m689 -73
c1 -10 5 -16 9 -13 5 3 15 -3 23 -12 72 -86 80 -117 12 -44 -83 88 -111 121
-105 126 9 10 61 -39 61 -57z m446 13 c8 -13 -5 -13 -25 0 -13 8 -13 10 2 10
9 0 20 -4 23 -10z m160 -50 c3 -5 1 -10 -4 -10 -6 0 -11 5 -11 10 0 6 2 10 4
10 3 0 8 -4 11 -10z m-846 -67 c-23 -21 -49 -44 -56 -52 -8 -7 -16 -11 -19 -8
-3 2 21 28 52 56 32 28 59 49 62 47 2 -3 -15 -22 -39 -43z m-505 22 c21 -16
56 -88 56 -115 0 -10 7 -21 16 -24 8 -3 12 -11 9 -16 -4 -6 -13 -1 -23 12 -21
28 -57 92 -54 96 1 1 2 8 1 15 0 6 -4 3 -9 -8 -8 -18 -9 -18 -9 -2 -1 10 -6
15 -12 12 -6 -4 -8 -13 -5 -21 5 -12 2 -12 -15 -3 -16 8 -24 8 -33 -2 -8 -9
-8 -10 2 -5 16 9 15 6 -4 -32 -8 -18 -21 -32 -27 -31 -8 0 -8 2 1 6 6 2 10 9
7 14 -4 5 -12 3 -19 -4 -8 -6 -12 -15 -9 -19 2 -5 0 -8 -5 -8 -4 0 -26 -16
-48 -35 -44 -39 -60 -45 -42 -15 7 11 16 20 21 20 4 0 6 4 3 9 -3 4 16 28 43
53 27 25 50 49 52 54 4 10 71 64 79 64 3 -1 14 -7 24 -15z m1344 -32 c-10 -2
-26 -2 -35 0 -10 3 -2 5 17 5 19 0 27 -2 18 -5z m-1598 -203 c-5 -9 -20 -22
-34 -30 -14 -7 -26 -17 -26 -22 0 -8 -105 -110 -217 -211 -33 -31 -59 -58 -55
-61 3 -3 0 -6 -7 -6 -7 0 -36 -18 -63 -40 -59 -46 -51 -50 34 -15 34 14 68 25
75 25 8 0 27 10 44 22 24 18 32 20 38 9 7 -11 10 -9 15 7 8 24 121 83 144 75
9 -4 13 -2 9 4 -6 9 63 43 87 43 5 0 36 14 70 31 33 17 54 24 46 16 -8 -9 -78
-47 -155 -86 -180 -91 -179 -90 -166 -124 13 -33 31 -35 31 -3 0 15 7 26 20
29 11 3 20 2 21 -1 0 -4 2 -18 4 -32 2 -14 5 -40 6 -57 1 -18 5 -33 8 -33 3 0
6 -34 6 -75 0 -41 4 -76 10 -77 5 -2 9 27 9 69 -1 54 2 70 12 66 9 -3 12 7 11
38 -2 38 1 43 23 49 24 7 26 5 26 -29 2 -45 15 -145 20 -150 4 -4 9 104 6 147
0 12 3 20 8 17 9 -6 17 -56 26 -167 4 -43 9 -78 13 -78 3 0 6 35 6 78 0 42 4
98 8 124 7 42 11 47 30 44 12 -3 25 -5 28 -5 4 -1 9 -27 13 -58 19 -175 32
-192 29 -37 -2 87 1 106 14 111 16 6 34 -13 32 -37 -5 -64 3 -180 11 -175 6 3
10 37 10 74 0 49 4 72 15 81 13 11 14 10 9 -4 -10 -25 5 -69 21 -63 7 3 19 -2
27 -11 12 -15 11 -16 -4 -3 -25 19 -22 2 4 -26 26 -28 42 -30 28 -3 -10 19 -8
20 35 20 26 0 55 5 66 10 28 15 35 -12 16 -60 -15 -38 -13 -85 4 -96 21 -12 6
-24 -30 -24 -28 0 -54 -10 -92 -36 -73 -49 -108 -66 -123 -61 -15 6 -60 -58
-51 -72 3 -6 1 -20 -6 -32 -10 -20 -9 -21 7 -14 41 16 52 15 107 -9 32 -14 64
-23 71 -20 29 11 25 -15 -5 -39 l-31 -24 32 -7 c20 -3 38 -1 47 5 23 20 79 3
111 -32 35 -39 33 -51 -13 -68 -19 -7 -35 -17 -35 -23 0 -6 -3 -9 -6 -5 -3 3
-17 -7 -31 -24 -35 -41 -54 -49 -127 -56 -50 -4 -72 -1 -109 15 -26 12 -47 19
-47 16 0 -3 -9 0 -20 6 -16 9 -18 8 -14 -5 4 -8 12 -15 20 -15 17 0 19 -20 2
-21 -7 0 2 -6 21 -13 25 -9 30 -14 19 -18 -40 -16 -269 118 -376 219 -29 27
-54 48 -56 46 -8 -9 -47 87 -57 142 -6 32 -19 74 -30 94 -10 20 -19 44 -19 54
0 10 -6 39 -14 65 -7 26 -21 76 -29 111 -15 63 -15 64 6 82 12 10 25 18 29 19
4 0 16 7 25 15 10 8 27 22 38 31 11 9 13 13 5 10 -35 -12 -236 -97 -252 -106
-22 -12 -48 -13 -48 -1 0 5 13 17 29 28 112 72 362 306 354 332 -4 14 -3 14 6
1 8 -12 24 -1 86 60 42 41 82 80 88 86 16 16 29 -4 17 -26z m410 -26 c0 -8 -6
-14 -14 -14 -18 0 -29 27 -13 33 16 6 27 -1 27 -19z m-60 -33 c0 -10 -130 -74
-137 -67 -5 4 28 24 97 57 19 10 36 18 38 18 1 1 2 -3 2 -8z m280 -11 c13 -9
13 -10 0 -10 -8 0 -22 5 -30 10 -13 9 -13 10 0 10 8 0 22 -5 30 -10z m-854
-26 c18 -14 18 -14 -6 -3 -31 14 -36 19 -24 19 6 0 19 -7 30 -16z m889 6 c-3
-5 -14 -10 -23 -10 -15 0 -15 2 -2 10 20 13 33 13 25 0z m432 -102 c-3 -8 -6
-5 -6 6 -1 11 2 17 5 13 3 -3 4 -12 1 -19z m-38 -60 c1 -35 7 -67 13 -73 7 -7
9 3 4 35 -7 47 8 47 17 0 3 -16 5 -9 7 20 2 42 3 43 10 15 11 -42 11 -139 0
-105 -8 25 -8 25 -11 -5 -1 -16 -1 -41 0 -54 3 -33 -40 -152 -52 -144 -6 3 -7
1 -3 -5 4 -6 0 -28 -9 -48 -12 -29 -13 -39 -3 -45 9 -6 8 -16 -5 -44 -9 -20
-17 -42 -17 -50 0 -7 -5 -17 -11 -21 -8 -5 -10 3 -7 24 2 17 1 29 -4 26 -4 -3
-8 -18 -8 -35 0 -16 -5 -29 -11 -29 -6 0 -9 7 -6 15 4 8 2 17 -3 20 -5 3 -14
-12 -20 -34 -11 -41 -54 -101 -72 -101 -7 0 -6 5 1 14 9 11 5 15 -19 19 -16 4
-30 11 -30 17 0 6 6 8 13 5 6 -3 1 2 -13 12 -14 10 -38 33 -55 51 -46 52 -110
76 -155 59 -46 -17 -60 -15 -66 9 -9 37 4 73 31 86 17 8 25 19 25 37 0 19 9
31 31 44 51 29 69 22 32 -13 -18 -17 -37 -30 -44 -30 -8 0 -8 -4 1 -15 7 -8
10 -22 6 -30 -9 -25 13 -63 34 -58 10 3 21 11 24 19 8 20 26 17 20 -3 -5 -14
-4 -15 4 -4 6 8 8 20 5 28 -4 9 0 11 11 7 10 -4 16 -1 16 7 0 11 3 11 10 -1 7
-11 10 -11 10 -2 0 7 5 10 10 7 6 -4 16 -2 23 3 9 8 13 1 15 -26 2 -37 22 -71
22 -39 0 9 5 17 11 17 8 0 9 15 5 45 -4 26 -3 45 2 45 8 0 26 52 35 105 2 11
7 -10 11 -47 4 -37 5 -77 1 -88 -4 -14 -2 -20 9 -20 11 0 14 8 11 33 -12 88
-17 177 -11 177 4 0 16 -5 27 -10 15 -8 19 -22 19 -60 0 -30 4 -50 11 -50 7 0
10 17 7 45 -2 31 1 45 9 45 20 0 21 -169 1 -181 -15 -9 -5 -44 12 -44 9 0 14
11 15 30 1 17 2 63 3 103 2 68 3 73 22 67 15 -5 20 -2 19 12 -2 28 -16 80 -18
63 -1 -13 -2 -13 -11 0 -14 22 -12 33 5 26 13 -4 15 9 15 83 0 74 4 101 15
101 1 0 3 -28 4 -62z m-1570 -44 c-17 -38 -33 -64 -36 -57 -4 12 57 137 64
130 2 -2 -11 -35 -28 -73z m1127 -42 c25 -50 40 -72 50 -68 7 3 18 -4 24 -14
10 -18 9 -19 -12 -10 -17 8 -36 6 -77 -8 -38 -14 -63 -17 -88 -12 -23 6 -36 4
-39 -3 -3 -7 -29 -12 -66 -12 -76 0 -83 13 -41 74 25 36 32 40 61 37 28 -3 32
-1 32 20 0 16 10 30 31 43 17 10 30 21 30 25 -4 33 -1 35 29 18 21 -12 42 -40
66 -90z m11 102 c-3 -3 -12 -4 -19 -1 -8 3 -5 6 6 6 11 1 17 -2 13 -5z m303
-69 c0 -11 -35 30 -51 60 -5 11 4 4 21 -15 16 -19 30 -39 30 -45z m-620 30 c0
-7 -101 -57 -107 -52 -2 3 11 14 29 25 45 27 78 38 78 27z m680 -76 c0 -6 -4
-7 -10 -4 -13 8 -13 -7 0 -23 5 -7 3 -6 -5 1 -9 8 -13 21 -9 30 6 17 24 14 24
-4z m-1031 -74 c0 -27 -2 -35 -8 -25 -8 14 -15 72 -11 95 3 22 19 -33 19 -70z
m1007 24 c4 -8 1 -8 -14 0 -12 6 -24 16 -28 22 -4 8 -1 8 14 0 12 -6 24 -16
28 -22z m-116 -39 c0 -5 -5 -10 -11 -10 -5 0 -7 5 -4 10 3 6 8 10 11 10 2 0 4
-4 4 -10z m266 -62 c-9 -5 -16 -16 -16 -25 0 -9 -2 -14 -5 -11 -3 3 -2 19 1
37 5 26 9 29 21 19 12 -10 12 -13 -1 -20z m-526 -68 c0 -5 -10 -10 -22 -10
-19 0 -20 2 -8 10 19 13 30 13 30 0z m-1140 -4 c0 -2 -8 -10 -17 -17 -16 -13
-17 -12 -4 4 13 16 21 21 21 13z m1018 -281 c11 -14 29 -25 41 -25 21 0 25
-19 6 -32 -26 -19 -138 6 -118 26 4 4 -1 4 -11 0 -14 -6 -17 -2 -14 17 3 22
14 28 70 38 4 0 15 -10 26 -24z m483 2 c-10 -9 -11 -8 -5 6 3 10 9 15 12 12 3
-3 0 -11 -7 -18z m-265 1 c5 -8 2 -9 -9 -5 -11 4 -17 1 -17 -8 0 -8 -4 -15
-10 -15 -5 0 -10 -7 -10 -15 0 -9 -6 -12 -15 -9 -8 4 -15 1 -15 -6 0 -7 -7
-10 -15 -6 -8 3 -15 1 -15 -5 0 -6 -7 -4 -15 5 -15 15 -20 48 -9 59 4 3 14 2
23 -2 11 -6 23 -4 36 5 23 17 61 18 71 2z m104 -48 c10 0 25 -6 32 -13 7 -7
25 -21 39 -31 17 -11 29 -30 34 -53 8 -45 1 -52 -20 -16 l-16 28 4 -37 c2 -31
0 -35 -14 -28 -9 5 -20 6 -24 2 -4 -4 -6 0 -3 8 6 17 -66 70 -94 70 -10 0 -18
5 -18 10 0 6 -7 10 -15 10 -24 0 -17 17 18 41 17 13 34 27 36 33 2 5 8 1 13
-8 5 -9 17 -16 28 -16z m130 -85 c0 -8 -4 -15 -10 -15 -5 0 -10 7 -10 15 0 8
5 15 10 15 6 0 10 -7 10 -15z m50 -28 c0 -19 -60 -100 -68 -93 -3 4 0 12 6 18
9 9 9 15 -1 27 -10 12 -9 14 5 9 17 -7 48 19 48 40 0 7 2 12 5 12 3 0 5 -6 5
-13z m-101 -152 c34 10 25 -15 -16 -52 -26 -22 -44 -31 -58 -26 -27 8 -29 11
-17 25 10 13 12 19 12 36 0 14 44 31 51 20 4 -6 16 -7 28 -3z m241 -506 c0 -3
-8 -13 -17 -20 -15 -11 -16 -11 -5 1 14 16 16 31 3 28 -9 -3 -11 2 -11 25 1
12 30 -21 30 -34z m20 -54 c0 -8 -2 -15 -4 -15 -2 0 -6 7 -10 15 -3 8 -1 15 4
15 6 0 10 -7 10 -15z"/>
<path d="M3356 4924 c-4 -9 -4 -19 -1 -22 2 -3 7 3 11 12 4 9 4 19 1 22 -2 3
-7 -3 -11 -12z"/>
<path d="M2387 3410 c-4 -14 -7 -59 -7 -100 1 -58 3 -71 11 -57 6 11 9 30 6
44 -3 15 -1 38 4 52 5 14 5 39 1 56 l-8 30 -7 -25z"/>
<path d="M2189 3399 c-14 -8 -7 -33 11 -40 24 -10 40 1 38 25 -2 21 -27 29
-49 15z"/>
<path d="M2220 3280 c-10 -6 -11 -10 -2 -10 6 0 12 -6 12 -14 0 -8 4 -17 8
-20 5 -3 6 8 4 25 -2 16 -5 29 -6 29 0 0 -8 -5 -16 -10z"/>
<path d="M2571 3244 c0 -11 3 -14 6 -6 3 7 2 16 -1 19 -3 4 -6 -2 -5 -13z"/>
<path d="M2577 3173 c-5 -42 -1 -56 14 -48 12 8 12 85 0 85 -5 0 -11 -17 -14
-37z"/>
<path d="M2601 2974 c0 -11 3 -14 6 -6 3 7 2 16 -1 19 -3 4 -6 -2 -5 -13z"/>
<path d="M3480 3280 c0 -5 5 -10 11 -10 5 0 7 5 4 10 -3 6 -8 10 -11 10 -2 0
-4 -4 -4 -10z"/>
<path d="M3546 3153 c-6 -14 -5 -15 5 -6 7 7 10 15 7 18 -3 3 -9 -2 -12 -12z"/>
<path d="M2089 5054 c-5 -15 -8 -29 -5 -31 2 -2 8 10 14 26 13 38 5 41 -9 5z"/>
<path d="M2025 3270 c-3 -5 -1 -10 4 -10 6 0 11 5 11 10 0 6 -2 10 -4 10 -3 0
-8 -4 -11 -10z"/>
<path d="M1537 2283 c-16 -19 -40 -73 -34 -79 2 -2 18 14 36 37 21 25 30 44
24 50 -6 6 -16 3 -26 -8z"/>
<path d="M1442 2187 c-31 -33 -27 -42 8 -17 17 12 30 26 30 31 0 16 -16 10
-38 -14z"/>
<path d="M4700 2190 c0 -5 7 -10 15 -10 8 0 15 5 15 10 0 6 -7 10 -15 10 -8 0
-15 -4 -15 -10z"/>
<path d="M4753 2140 c-10 -11 -25 -20 -35 -20 -10 0 -18 -7 -18 -15 0 -14 4
-14 32 1 47 24 73 54 48 54 -6 0 -18 -9 -27 -20z"/>
<path d="M1289 2114 c-23 -25 -23 -26 -2 -13 13 7 25 19 27 26 8 19 2 16 -25
-13z"/>
<path d="M1480 2130 c0 -6 7 -10 15 -10 8 0 15 2 15 4 0 2 -7 6 -15 10 -8 3
-15 1 -15 -4z"/>
<path d="M4979 2104 c-12 -15 -11 -16 11 -9 23 7 24 7 10 -11 -8 -10 -23 -29
-33 -41 -11 -12 -17 -25 -14 -30 3 -5 -3 -9 -13 -9 -10 0 -16 4 -14 8 3 4 2 8
-3 8 -12 0 -73 -56 -73 -67 0 -5 -17 -7 -37 -4 -21 2 -31 6 -23 9 23 8 81 54
75 60 -3 3 -15 -3 -28 -14 -52 -47 -97 -46 -89 1 3 17 1 17 -8 5 -9 -13 -12
-13 -21 3 -16 28 -28 20 -35 -23 -4 -24 -12 -40 -20 -40 -17 0 -18 17 -2 22 9
3 9 6 -1 12 -8 5 -14 1 -18 -13 -3 -11 -9 -18 -14 -15 -5 3 -7 9 -4 14 6 10
-23 22 -36 14 -5 -3 -9 1 -9 9 0 11 -43 57 -54 57 -11 0 -35 -51 -30 -65 6
-14 8 -14 21 2 14 17 14 17 9 1 -4 -14 0 -18 19 -18 26 0 33 -14 15 -25 -6 -4
-18 -1 -26 6 -13 10 -17 10 -24 0 -6 -10 -10 -8 -15 8 -7 22 -29 24 -31 3 -3
-25 -5 -27 -14 -12 -6 10 -10 11 -10 3 0 -16 -32 -17 -48 -1 -7 7 -12 8 -12 2
0 -18 41 -35 70 -29 19 4 40 0 62 -11 18 -10 38 -17 44 -16 7 1 14 -5 18 -13
7 -20 54 -39 88 -36 22 2 29 -3 33 -22 6 -23 -12 -139 -34 -227 -27 -101 -51
-222 -56 -280 -4 -36 -26 -168 -50 -295 -70 -366 -74 -388 -100 -630 -14 -126
-32 -258 -39 -293 -22 -100 -20 -102 85 -102 l89 0 0 29 c0 17 5 33 10 36 6 3
10 18 10 33 0 15 7 38 16 51 12 17 13 26 5 34 -13 13 -15 57 -2 57 15 0 22 32
10 46 -8 10 -8 14 0 14 6 0 11 11 11 24 0 14 5 28 10 31 6 3 10 19 10 36 0 16
5 29 10 29 6 0 10 17 10 38 0 27 3 33 10 22 8 -12 10 -9 10 13 0 15 -3 27 -7
27 -11 0 -13 284 -2 290 4 3 2 33 -6 65 -8 33 -14 84 -15 113 0 28 -4 52 -10
52 -5 0 -10 7 -10 15 0 8 5 15 10 15 6 0 10 5 10 11 0 5 -4 7 -10 4 -5 -3 -10
3 -10 15 0 12 -4 18 -10 15 -20 -12 -20 43 1 100 12 35 25 107 31 170 7 77 14
114 25 122 8 6 12 17 8 23 -4 6 -2 17 5 25 6 7 9 32 7 54 -2 22 0 38 5 35 4
-3 8 1 8 9 0 8 9 22 20 32 11 10 22 33 26 51 6 34 35 47 49 24 4 -6 11 -8 16
-5 5 4 9 2 9 -3 0 -10 92 -78 101 -75 3 1 12 -7 20 -19 8 -11 24 -32 36 -46
13 -15 23 -30 23 -34 0 -5 7 -8 15 -8 8 0 15 -6 15 -13 0 -7 15 -35 33 -62 17
-27 39 -60 48 -74 8 -14 29 -29 45 -32 16 -4 22 -7 15 -8 -12 -1 -12 -4 -3
-13 16 -16 15 -45 -1 -55 -20 -12 -1 -183 22 -201 12 -9 13 -15 4 -20 -8 -5
-9 -13 -3 -22 5 -9 5 -19 -2 -27 -6 -8 -7 -18 -2 -25 5 -7 8 -38 8 -68 -3 -80
-3 -82 -12 -76 -4 2 -8 -10 -9 -27 0 -18 -8 -97 -17 -177 -14 -119 -23 -156
-48 -207 -29 -60 -30 -67 -24 -155 3 -51 8 -141 12 -200 l6 -108 424 0 424 0
0 429 c0 297 -3 432 -11 437 -7 4 -9 -2 -7 -17 2 -16 -2 -24 -12 -24 -8 0 -18
-4 -22 -10 -4 -5 -15 -1 -27 9 -19 17 -21 17 -21 3 0 -10 5 -17 10 -17 6 0 10
-5 10 -11 0 -5 -4 -7 -10 -4 -5 3 -15 -4 -20 -17 -12 -25 -103 -81 -136 -83
-27 -2 -71 29 -55 39 6 4 11 1 11 -6 0 -7 9 2 20 20 11 17 25 32 31 32 6 0 8
8 4 19 -3 11 1 25 9 32 35 32 46 39 60 39 8 0 16 5 18 12 6 17 38 19 38 2 0
-8 5 -14 10 -14 6 0 10 9 10 20 0 11 4 20 10 20 5 0 18 10 30 22 11 12 20 18
20 12 0 -5 7 4 15 20 10 19 15 58 15 117 l0 90 -29 -16 c-16 -8 -31 -20 -34
-27 -3 -7 -6 -2 -6 13 -1 14 4 30 11 37 9 9 9 12 0 12 -22 0 -12 20 13 26 14
3 25 10 25 15 0 13 -24 11 -38 -3 -9 -9 -12 -5 -13 18 -1 19 -3 23 -6 10 -4
-15 -7 -16 -13 -5 -13 20 -20 7 -29 -48 -7 -48 -7 -48 -14 -15 -4 22 -2 43 8
62 19 36 19 50 1 50 -8 0 -17 11 -20 25 -4 15 -13 25 -24 25 -16 -1 -16 -1 1
-11 9 -5 17 -17 17 -24 0 -17 -31 -20 -45 -6 -6 5 -23 11 -40 14 -26 3 -24 4
10 6 30 1 36 4 25 11 -10 6 -11 10 -2 10 6 0 12 8 12 19 0 15 -7 18 -44 16
-33 -1 -43 2 -39 12 10 26 -14 12 -62 -34 -12 -13 -31 -23 -41 -23 -14 0 -16
-2 -6 -9 8 -4 13 -12 12 -17 -1 -4 15 -14 36 -21 30 -11 41 -11 58 -1 23 15
40 15 74 4 29 -10 28 -30 -3 -44 -14 -6 -25 -16 -25 -22 0 -18 -52 -58 -90
-71 -46 -15 -57 -26 -42 -41 9 -9 12 -8 12 5 0 10 8 17 20 17 32 0 23 -18 -15
-31 -19 -7 -35 -17 -35 -21 0 -4 -5 -7 -12 -5 -6 1 -14 -7 -16 -18 -5 -22 -76
-92 -104 -101 -10 -3 -18 -10 -18 -15 0 -5 -4 -9 -10 -9 -5 0 -10 9 -10 20 0
11 6 20 14 20 15 0 29 53 15 58 -5 2 -9 10 -9 17 0 20 -28 45 -44 39 -7 -3
-16 2 -19 11 -5 11 -14 14 -32 9 -23 -6 -25 -4 -19 25 5 24 3 31 -9 31 -22 0
-28 26 -21 92 7 60 20 81 35 57 7 -11 9 -10 9 4 0 9 4 16 9 15 5 -2 8 2 7 7 0
6 -7 9 -13 9 -7 -1 -10 3 -7 8 4 6 1 14 -6 18 -9 6 0 12 28 21 41 12 51 22 33
33 -4 3 -17 -1 -27 -9 -26 -20 -29 -19 -42 10 -18 39 -15 47 11 34 20 -10 20
-10 7 4 -19 19 -44 26 -45 11 0 -16 -39 -84 -47 -84 -5 0 -8 9 -8 20 0 11 -7
23 -15 26 -8 4 -15 10 -15 16 0 5 5 6 11 2 6 -3 15 0 20 7 12 19 11 27 -3 32
-7 2 -5 3 5 2 24 -4 22 2 -13 37 -26 25 -30 35 -24 63 4 24 2 34 -10 38 -10 4
-13 1 -9 -9 7 -20 -5 -47 -18 -38 -8 4 -7 9 2 15 11 7 10 9 -3 9 -19 0 -34 40
-25 64 3 8 -5 18 -19 25 -13 6 -24 19 -25 28 0 11 -3 13 -6 5 -3 -7 1 -20 8
-28 10 -12 10 -17 0 -23 -14 -9 -15 -30 -6 -81 5 -30 4 -32 -6 -15 -7 11 -15
22 -18 25 -4 3 -12 16 -18 30 l-12 25 0 -26 c-1 -15 6 -32 14 -39 17 -14 20
-30 5 -30 -14 0 -37 40 -45 79 -5 22 -4 31 3 27 6 -3 13 -2 16 3 4 5 -3 12
-14 16 -26 8 -26 25 0 25 24 0 25 8 4 31 -17 19 -11 39 12 39 8 0 14 5 14 10
0 6 -6 10 -14 10 -10 0 -12 7 -8 22 3 12 7 17 10 10 2 -6 10 -12 17 -12 8 0
12 -10 10 -25 -1 -14 2 -28 6 -31 5 -3 9 1 9 9 0 17 27 31 50 28 11 -2 10 2
-5 17 -11 10 -23 15 -26 10 -6 -10 -39 0 -39 12 0 5 5 10 12 12 14 5 13 81 -2
86 -16 6 -12 42 5 42 8 0 16 6 16 13 5 46 3 74 -4 70 -5 -3 -16 2 -25 10 -9 8
-24 14 -32 14 -8 0 -24 3 -36 7 -14 4 -26 1 -35 -10z m11 -94 c0 -5 -4 -10
-10 -10 -5 0 -10 5 -10 10 0 6 5 10 10 10 6 0 10 -4 10 -10z m-95 -40 c-10
-11 -20 -18 -23 -15 -7 6 18 35 31 35 5 0 2 -9 -8 -20z m355 -562 c0 -5 -4 -8
-10 -8 -5 0 -10 10 -10 23 0 18 2 19 10 7 5 -8 10 -18 10 -22z m57 -50 c-3 -8
-6 -5 -6 6 -1 11 2 17 5 13 3 -3 4 -12 1 -19z m453 -6 c0 -15 -2 -15 -10 -2
-13 20 -13 33 0 25 6 -3 10 -14 10 -23z m-65 -44 c7 -7 1 -8 -15 -3 -40 12
-59 26 -25 19 17 -4 35 -11 40 -16z m205 -113 c0 -14 -4 -25 -9 -25 -5 0 -8
11 -7 25 1 33 16 33 16 0z m-66 -36 c-3 -6 0 -15 7 -20 10 -6 9 -10 -6 -15
-23 -9 -54 -44 -55 -60 0 -6 -10 -16 -22 -23 -53 -28 -71 -40 -79 -53 -7 -10
-9 -9 -9 5 0 10 7 20 16 24 9 3 13 12 9 21 -6 17 70 92 94 92 8 0 11 3 8 7 -4
3 -2 12 4 20 14 16 43 18 33 2z m-558 -37 c-10 -11 -16 -12 -16 -4 0 7 5 12
10 12 6 0 10 8 11 18 0 11 2 13 6 4 3 -8 -2 -21 -11 -30z m614 -12 c0 -16 -41
-33 -52 -22 -7 7 -3 12 11 17 12 3 21 11 21 16 0 6 5 7 10 4 6 -3 10 -10 10
-15z m-50 -68 c-8 -3 -18 -9 -21 -15 -7 -11 -29 -1 -29 13 0 10 40 18 55 11 5
-2 2 -7 -5 -9z m-117 -261 c-6 -22 -43 -36 -43 -17 0 10 15 22 47 35 0 1 -1
-8 -4 -18z m-56 -37 c-4 -4 2 -19 13 -34 24 -34 25 -47 5 -66 -13 -14 -15 -14
-15 1 0 13 -7 16 -28 13 -40 -6 -59 16 -42 48 7 13 17 21 22 18 4 -3 11 2 14
10 3 9 13 16 22 16 8 0 12 -3 9 -6z m-127 -114 c0 -5 -5 -10 -11 -10 -5 0 -7
5 -4 10 3 6 8 10 11 10 2 0 4 -4 4 -10z m380 0 c0 -5 -2 -10 -4 -10 -3 0 -8 5
-11 10 -3 6 -1 10 4 10 6 0 11 -4 11 -10z m-300 -4 c0 -2 -7 -6 -15 -10 -8 -3
-15 -1 -15 4 0 6 7 10 15 10 8 0 15 -2 15 -4z m264 -71 c-4 -8 -10 -12 -15 -9
-5 3 -9 -1 -9 -9 0 -10 -9 -14 -25 -13 -34 2 -31 23 7 58 31 28 33 28 40 8 4
-11 5 -27 2 -35z m46 -5 c0 -5 -2 -10 -4 -10 -3 0 -8 5 -11 10 -3 6 -1 10 4
10 6 0 11 -4 11 -10z m-93 -46 c-3 -3 -12 -4 -19 -1 -8 3 -5 6 6 6 11 1 17 -2
13 -5z"/>
<path d="M5600 690 c0 -5 5 -10 10 -10 6 0 10 5 10 10 0 6 -4 10 -10 10 -5 0
-10 -4 -10 -10z"/>
<path d="M5635 680 c-3 -5 -1 -10 4 -10 6 0 11 5 11 10 0 6 -2 10 -4 10 -3 0
-8 -4 -11 -10z"/>
<path d="M4258 2080 c-28 -29 -36 -50 -19 -50 9 0 34 34 44 63 8 22 7 22 -25
-13z"/>
<path d="M1571 2078 c6 -13 13 -24 14 -26 1 -1 15 5 31 14 l29 16 -26 -6 c-19
-4 -29 -1 -33 9 -3 8 -10 15 -16 15 -7 0 -7 -7 1 -22z"/>
<path d="M1390 2080 c-9 -6 -10 -10 -3 -10 6 0 15 5 18 10 8 12 4 12 -15 0z"/>
<path d="M4925 2080 c-3 -5 -1 -10 4 -10 6 0 11 5 11 10 0 6 -2 10 -4 10 -3 0
-8 -4 -11 -10z"/>
<path d="M4956 2063 c-6 -14 -5 -15 5 -6 7 7 10 15 7 18 -3 3 -9 -2 -12 -12z"/>
<path d="M1199 2057 c7 -7 14 -8 21 -1 6 6 2 10 -12 11 -16 2 -18 -1 -9 -10z"/>
<path d="M1321 2057 c-9 -12 -9 -17 0 -23 8 -4 9 -3 5 4 -4 7 -2 12 4 12 7 0
10 -6 8 -12 -3 -7 -22 -14 -44 -14 -21 -1 -48 -5 -59 -9 l-20 -8 20 17 c20 16
19 16 -4 8 -26 -9 -41 -32 -21 -32 6 0 8 -4 5 -10 -3 -5 0 -10 9 -10 8 0 17 6
20 13 3 6 4 3 2 -8 -3 -13 5 -27 23 -42 l27 -21 64 20 c56 18 61 22 41 30 -13
4 -27 6 -32 2 -5 -3 -9 -2 -9 1 0 3 14 11 32 17 l31 11 -36 18 c-20 11 -40 26
-45 35 -7 13 -10 13 -21 1z"/>
<path d="M1500 2039 c-25 -10 -52 -16 -60 -13 -12 4 -11 1 2 -12 16 -16 16
-18 0 -31 -15 -13 -14 -13 6 -3 12 6 22 17 22 25 0 18 20 20 20 3 1 -9 5 -7
13 3 7 9 16 16 20 16 26 2 48 13 42 22 -8 13 -9 13 -65 -10z"/>
<path d="M1360 2046 c0 -2 7 -7 16 -10 8 -3 12 -2 9 4 -6 10 -25 14 -25 6z"/>
<path d="M4620 2019 c0 -5 5 -7 10 -4 6 3 10 8 10 11 0 2 -4 4 -10 4 -5 0 -10
-5 -10 -11z"/>
<path d="M3915 1990 c-3 -5 -3 -16 1 -22 6 -10 4 -10 -7 0 -24 22 -29 13 -29
-50 0 -48 3 -59 12 -50 15 15 48 16 48 0 0 -26 9 1 15 44 8 61 -18 113 -40 78z"/>
<path d="M4316 1843 c-3 -3 -3 -10 0 -14 7 -12 34 -11 34 0 0 11 -26 22 -34
14z"/>
<path d="M3875 1832 c-3 -3 -5 -18 -5 -34 0 -21 6 -31 26 -38 36 -14 39 -13
19 10 -11 12 -15 28 -11 43 4 17 1 24 -9 24 -8 0 -17 -3 -20 -5z"/>
<path d="M4395 1800 c-4 -6 -2 -16 3 -23 12 -15 38 -113 48 -187 l8 -55 8 55
c4 30 10 82 13 115 l7 60 -36 23 c-41 25 -43 26 -51 12z"/>
<path d="M1470 1791 c0 -6 5 -13 10 -16 6 -3 10 1 10 9 0 9 -4 16 -10 16 -5 0
-10 -4 -10 -9z"/>
<path d="M5134 1776 c-1 -14 4 -27 12 -30 15 -6 18 11 8 38 -9 24 -19 19 -20
-8z"/>
<path d="M5045 1780 c3 -5 13 -10 21 -10 8 0 12 5 9 10 -3 6 -13 10 -21 10 -8
0 -12 -4 -9 -10z"/>
<path d="M1500 1760 c-9 -6 -10 -10 -3 -10 6 0 15 5 18 10 8 12 4 12 -15 0z"/>
<path d="M3870 1736 c0 -2 7 -6 15 -10 8 -3 15 -1 15 4 0 6 -7 10 -15 10 -8 0
-15 -2 -15 -4z"/>
<path d="M3854 1685 c-10 -8 -14 -14 -9 -15 15 0 40 18 34 24 -3 3 -14 -1 -25
-9z"/>
<path d="M4260 1670 c0 -5 5 -10 11 -10 5 0 7 5 4 10 -3 6 -8 10 -11 10 -2 0
-4 -4 -4 -10z"/>
<path d="M4060 1509 c0 -5 -4 -8 -8 -5 -4 2 -8 -4 -8 -15 0 -19 1 -19 13 -3
13 18 17 34 8 34 -3 0 -5 -5 -5 -11z"/>
<path d="M4701 1484 c0 -11 3 -14 6 -6 3 7 2 16 -1 19 -3 4 -6 -2 -5 -13z"/>
<path d="M917 1479 c7 -7 15 -10 18 -7 3 3 -2 9 -12 12 -14 6 -15 5 -6 -5z"/>
<path d="M5275 1480 c-3 -5 3 -10 15 -10 12 0 18 5 15 10 -3 6 -10 10 -15 10
-5 0 -12 -4 -15 -10z"/>
<path d="M5470 1479 c0 -5 5 -7 10 -4 6 3 10 8 10 11 0 2 -4 4 -10 4 -5 0 -10
-5 -10 -11z"/>
<path d="M5705 1480 c3 -5 10 -10 16 -10 5 0 9 5 9 10 0 6 -7 10 -16 10 -8 0
-12 -4 -9 -10z"/>
<path d="M950 1455 c0 -8 4 -15 10 -15 5 0 7 7 4 15 -4 8 -8 15 -10 15 -2 0
-4 -7 -4 -15z"/>
<path d="M5610 1459 c0 -5 5 -7 10 -4 6 3 10 8 10 11 0 2 -4 4 -10 4 -5 0 -10
-5 -10 -11z"/>
<path d="M5650 1440 c0 -5 -10 -9 -22 -7 -27 3 -37 -28 -12 -37 11 -4 24 1 36
13 20 22 24 41 8 41 -5 0 -10 -4 -10 -10z"/>
<path d="M5685 1430 c3 -5 10 -10 16 -10 5 0 9 5 9 10 0 6 -7 10 -16 10 -8 0
-12 -4 -9 -10z"/>
<path d="M980 1424 c0 -3 9 -17 20 -31 11 -14 20 -31 20 -38 0 -6 18 -36 40
-65 22 -29 40 -59 40 -66 0 -6 7 -17 15 -24 8 -7 12 -16 9 -21 -3 -5 2 -9 10
-9 9 0 15 -3 14 -7 -2 -11 36 -73 45 -73 4 0 5 17 2 38 -4 27 -3 32 4 17 12
-26 14 -65 2 -65 -5 0 5 -27 21 -60 16 -33 26 -65 22 -72 -4 -7 -3 -8 4 -4 8
5 12 -1 12 -14 0 -12 4 -19 9 -16 20 13 43 -118 24 -137 -11 -12 -12 -57 -1
-57 7 0 6 -5 -1 -14 -7 -8 -9 -25 -5 -41 4 -18 9 -23 14 -15 17 27 27 0 19
-48 -9 -49 -8 -73 5 -103 4 -9 2 -36 -3 -60 -13 -56 -13 -62 -1 -54 6 3 10 17
10 30 0 13 4 26 9 29 13 8 5 -80 -13 -149 -19 -69 -22 -121 -5 -93 9 16 11 16
28 0 11 -11 15 -21 9 -28 -6 -8 -3 -11 9 -10 13 1 22 -17 39 -84 l22 -85 2 55
c1 30 4 48 7 40 29 -80 33 -84 48 -64 14 18 14 18 15 -3 0 -21 5 -23 56 -23
l56 0 -4 95 c-3 52 -1 92 4 89 11 -7 10 3 -4 51 -11 38 -12 39 -19 15 -6 -21
-7 -22 -8 -5 -1 12 4 26 9 31 7 7 3 41 -11 105 -11 51 -22 105 -24 119 -16
111 -80 287 -141 391 -28 46 -65 110 -83 142 -18 31 -36 57 -39 57 -4 0 -13
12 -19 28 -7 15 -38 54 -68 87 -30 33 -76 84 -103 113 -90 101 -122 129 -122
106z m271 -386 c11 -21 11 -22 -4 -9 -10 7 -17 17 -17 22 0 15 9 10 21 -13z
m176 -915 c-3 -10 -5 -4 -5 12 0 17 2 24 5 18 2 -7 2 -21 0 -30z"/>
<path d="M665 1390 c3 -5 10 -10 16 -10 5 0 9 5 9 10 0 6 -7 10 -16 10 -8 0
-12 -4 -9 -10z"/>
<path d="M4410 1374 c-12 -31 -12 -34 -1 -34 5 0 11 14 13 30 6 37 1 38 -12 4z"/>
<path d="M585 1346 c-39 -15 -41 -30 -9 -55 l26 -21 20 25 c20 25 21 57 3 60
-5 2 -23 -3 -40 -9z"/>
<path d="M5895 1319 c-11 -17 1 -21 15 -4 8 9 8 15 2 15 -6 0 -14 -5 -17 -11z"/>
<path d="M4222 1270 c0 -14 2 -19 5 -12 2 6 2 18 0 25 -3 6 -5 1 -5 -13z"/>
<path d="M5630 1281 c0 -14 18 -23 31 -15 8 4 7 9 -2 15 -18 11 -29 11 -29 0z"/>
<path d="M465 1270 c3 -6 -4 -14 -17 -19 -17 -7 -19 -10 -5 -10 11 -1 17 -9
17 -25 0 -28 -15 -43 -24 -24 -3 10 -8 9 -18 -3 -7 -9 -19 -14 -26 -12 -7 3
-10 -1 -7 -9 3 -8 -6 -18 -25 -25 -16 -6 -30 -18 -30 -26 0 -9 -9 -17 -20 -19
-12 -2 -19 -6 -18 -10 2 -3 -7 -17 -18 -30 -12 -13 -25 -33 -29 -46 -6 -22 -5
-23 34 -18 31 3 41 1 41 -10 0 -7 6 -11 13 -9 6 3 23 -1 36 -8 18 -9 24 -22
26 -54 2 -24 -1 -43 -6 -43 -5 0 -9 6 -9 14 0 8 -4 17 -9 20 -5 3 -4 -12 1
-34 11 -44 3 -66 -13 -37 -6 9 -14 15 -20 12 -5 -4 -9 -2 -9 4 0 5 5 11 11 13
5 2 7 11 3 21 -3 10 -13 16 -20 13 -8 -3 -14 1 -14 8 0 20 -27 40 -35 26 -7
-12 19 -42 45 -53 11 -4 10 -6 -3 -6 -10 -1 -15 -6 -12 -11 8 -14 -64 -79 -87
-80 -10 0 -18 -4 -18 -9 0 -15 -41 -24 -53 -12 -8 8 -6 11 6 11 19 0 23 15 6
26 -6 3 -14 1 -18 -5 -4 -6 -15 -9 -24 -5 -11 4 -17 1 -17 -9 0 -8 -9 -17 -20
-20 -13 -3 -20 0 -20 9 0 8 6 11 15 8 10 -4 13 -2 10 7 -3 8 -20 14 -40 14
-36 0 -46 -9 -20 -19 8 -3 15 -13 15 -23 0 -13 -3 -14 -12 -5 -7 7 -15 12 -19
12 -3 0 -7 -171 -8 -380 l-2 -380 345 0 346 0 0 81 c0 51 4 78 10 74 6 -4 10
12 10 40 0 26 -4 44 -9 40 -6 -3 -8 8 -4 27 6 42 -10 104 -27 100 -8 -2 -11 4
-7 17 2 11 -1 46 -9 78 -45 190 -86 665 -59 686 6 5 4 7 -5 4 -8 -2 -23 2 -32
11 -12 10 -18 11 -18 4 0 -7 5 -12 12 -12 6 0 1 -11 -12 -25 -24 -26 -22 -42
4 -32 10 4 13 13 10 24 -5 17 -5 17 6 0 6 -9 8 -22 5 -27 -3 -6 -1 -10 4 -10
6 0 11 -4 11 -10 0 -5 -11 -10 -25 -10 -16 0 -25 -6 -25 -16 0 -9 6 -14 13
-11 8 3 14 -4 15 -18 1 -21 -1 -22 -22 -12 -14 7 -22 15 -20 19 7 10 1 10 -30
-2 -18 -7 -24 -14 -19 -26 4 -12 2 -15 -8 -12 -8 3 -13 11 -12 17 5 21 -13 11
-27 -14 -13 -24 -14 -24 -32 -8 -14 12 -15 19 -6 24 9 6 9 11 -2 24 -21 26
-19 58 5 83 19 18 23 19 21 6 0 -9 5 -19 12 -21 7 -3 10 1 6 11 -3 9 -2 16 4
16 6 0 12 -6 14 -12 8 -23 64 45 76 92 6 24 10 45 9 45 -1 1 -14 9 -29 18 -31
19 -42 22 -33 7z m-35 -120 c0 -5 -5 -10 -11 -10 -5 0 -7 5 -4 10 3 6 8 10 11
10 2 0 4 -4 4 -10z m85 -160 c8 -13 -5 -13 -25 0 -13 8 -13 10 2 10 9 0 20 -4
23 -10z m-15 -30 c0 -5 -7 -10 -15 -10 -8 0 -15 5 -15 10 0 6 7 10 15 10 8 0
15 -4 15 -10z m60 -10 c0 -5 -12 -10 -26 -10 -14 0 -23 4 -19 10 3 6 15 10 26
10 10 0 19 -4 19 -10z m-60 -30 c0 -5 -2 -10 -4 -10 -3 0 -8 5 -11 10 -3 6 -1
10 4 10 6 0 11 -4 11 -10z m-40 -25 c0 -8 -4 -15 -10 -15 -5 0 -10 7 -10 15 0
8 5 15 10 15 6 0 10 -7 10 -15z m4 -40 c3 -9 0 -15 -9 -15 -9 0 -12 6 -9 15 4
8 7 15 9 15 2 0 5 -7 9 -15z m-178 -70 c-4 -10 1 -15 14 -15 11 0 20 -4 20
-10 0 -5 -6 -7 -14 -4 -8 3 -17 1 -21 -5 -3 -7 2 -11 14 -11 12 0 21 -4 21 -9
0 -10 -48 -2 -55 9 -6 10 12 60 21 60 3 0 4 -7 0 -15z m-46 -25 c0 -5 -2 -10
-4 -10 -3 0 -8 5 -11 10 -3 6 -1 10 4 10 6 0 11 -4 11 -10z m-82 -23 c23 -1
38 -37 21 -48 -6 -4 -20 -4 -30 -2 -11 3 -26 0 -34 -7 -12 -10 -15 -9 -15 4 0
14 17 20 57 19 6 0 9 6 6 13 -6 17 -15 18 -31 2 -9 -9 -12 -9 -12 0 0 7 -9 12
-20 12 -11 0 -20 4 -20 9 0 12 43 19 51 8 3 -4 15 -9 27 -10z m78 -32 c-4 -12
0 -14 19 -9 22 5 24 3 18 -12 -9 -27 -33 -60 -34 -49 0 6 -4 0 -9 -13 -5 -12
-7 -28 -4 -36 3 -8 -3 -16 -15 -19 -12 -3 -21 -1 -21 5 0 6 -7 7 -16 4 -13 -5
-15 -1 -12 21 3 16 9 36 13 46 4 10 4 17 -1 16 -23 -4 -45 2 -39 11 4 6 12 9
18 8 15 -3 77 25 77 34 0 5 3 8 6 8 3 0 4 -7 0 -15z m144 -15 c0 -5 -4 -10
-10 -10 -5 0 -10 5 -10 10 0 6 5 10 10 10 6 0 10 -4 10 -10z m-178 -160 c10 0
18 -5 18 -11 0 -6 -7 -8 -16 -5 -9 3 -22 6 -30 6 -8 0 -14 8 -14 17 0 13 3 14
12 5 7 -7 20 -12 30 -12z m33 -61 c-10 -15 -25 -10 -19 6 4 8 10 12 15 9 5 -3
7 -10 4 -15z m195 -179 c0 -5 -2 -10 -4 -10 -3 0 -8 5 -11 10 -3 6 -1 10 4 10
6 0 11 -4 11 -10z m20 -29 c0 -6 -4 -12 -9 -15 -5 -3 -7 -16 -3 -28 4 -17 2
-20 -12 -15 -10 4 -22 7 -28 7 -6 0 -8 7 -4 15 3 8 1 15 -4 15 -6 0 -10 5 -10
10 0 6 7 10 15 10 8 0 15 -4 15 -10 0 -5 5 -10 10 -10 6 0 10 7 10 15 0 8 5
15 10 15 6 0 10 -4 10 -9z m-95 -81 c3 -5 1 -10 -4 -10 -6 0 -11 5 -11 10 0 6
2 10 4 10 3 0 8 -4 11 -10z m325 -150 c0 -5 -2 -10 -4 -10 -3 0 -8 5 -11 10
-3 6 -1 10 4 10 6 0 11 -4 11 -10z"/>
<path d="M200 661 c0 -12 3 -21 8 -21 12 1 47 30 35 30 -6 0 -18 3 -27 6 -12
4 -16 0 -16 -15z"/>
<path d="M627 1263 c-4 -3 -7 -11 -7 -17 0 -6 5 -5 12 2 6 6 9 14 7 17 -3 3
-9 2 -12 -2z"/>
<path d="M3897 1223 c-4 -3 -7 -11 -7 -17 0 -6 5 -5 12 2 6 6 9 14 7 17 -3 3
-9 2 -12 -2z"/>
<path d="M3342 1170 c-14 -18 -17 -31 -11 -41 8 -13 13 -5 10 14 -1 5 3 6 8 3
5 -4 12 -2 16 4 3 5 1 10 -5 10 -6 0 -8 5 -5 10 4 6 10 8 15 5 4 -3 10 1 13 8
9 24 -21 14 -41 -13z"/>
<path d="M5640 1180 c0 -14 15 -19 29 -11 9 6 7 10 -8 14 -12 3 -21 1 -21 -3z"/>
<path d="M2608 1116 c20 -19 39 -33 40 -31 5 5 -61 64 -70 65 -4 0 9 -15 30
-34z"/>
<path d="M3310 1119 c0 -5 -4 -8 -9 -4 -6 3 -15 -4 -21 -15 -6 -11 -7 -20 -3
-20 4 0 1 -5 -7 -10 -13 -8 -13 -10 1 -10 9 0 22 7 29 15 9 10 9 15 1 15 -6 0
-11 4 -11 9 0 6 9 8 19 6 14 -3 18 1 14 11 -6 17 -13 18 -13 3z"/>
<path d="M4167 1107 c-3 -8 1 -14 8 -14 7 0 11 6 8 14 -3 7 -6 13 -8 13 -2 0
-5 -6 -8 -13z"/>
<path d="M475 1100 c-3 -5 -1 -10 4 -10 6 0 11 5 11 10 0 6 -2 10 -4 10 -3 0
-8 -4 -11 -10z"/>
<path d="M2660 1071 c0 -3 12 -14 25 -24 20 -14 24 -15 19 -2 -3 8 -10 15 -16
15 -5 0 -7 4 -4 8 3 5 -1 9 -9 9 -8 0 -15 -3 -15 -6z"/>
<path d="M3230 1050 c-8 -5 -18 -6 -24 -3 -5 3 -6 1 -2 -5 4 -6 14 -8 24 -5
15 6 15 5 3 -10 -10 -13 -17 -14 -27 -6 -9 7 -20 6 -39 -7 -14 -9 -23 -19 -20
-22 2 -3 -3 -11 -13 -19 -16 -12 -16 -13 2 -6 15 5 17 3 11 -8 -5 -8 3 -4 17
9 13 12 29 22 34 22 6 0 25 13 43 29 23 20 28 30 18 34 -8 3 -20 1 -27 -3z
m-24 -42 c4 -7 3 -10 -1 -5 -5 4 -19 -3 -33 -15 -16 -16 -23 -18 -20 -8 2 8
12 20 23 27 25 15 23 15 31 1z"/>
<path d="M2720 1032 c0 -9 93 -72 106 -72 14 0 -11 22 -40 34 -17 7 -39 21
-49 30 -9 10 -17 13 -17 8z"/>
<path d="M2858 981 c40 -10 58 -27 20 -17 -15 3 -29 3 -31 -1 -3 -5 10 -9 29
-10 19 -2 34 2 34 7 0 6 10 10 23 9 21 0 21 -1 2 -10 -19 -9 -19 -9 1 -6 12 3
29 0 38 -5 10 -6 16 -5 16 2 0 5 -8 10 -17 11 -12 1 -10 4 7 9 20 6 15 8 -25
9 -27 1 -68 3 -90 6 -38 4 -38 4 -7 -4z"/>
<path d="M225 960 c3 -5 8 -10 11 -10 2 0 4 5 4 10 0 6 -5 10 -11 10 -5 0 -7
-4 -4 -10z"/>
<path d="M3060 950 c-8 -5 -10 -10 -5 -10 6 0 17 5 25 10 8 5 11 10 5 10 -5 0
-17 -5 -25 -10z"/>
<path d="M365 940 c-3 -5 -1 -10 4 -10 6 0 11 5 11 10 0 6 -2 10 -4 10 -3 0
-8 -4 -11 -10z"/>
<path d="M2915 929 c-33 -5 -29 -6 28 -8 37 0 67 1 67 3 0 8 -56 11 -95 5z"/>
<path d="M193 835 c0 -14 3 -25 8 -25 5 0 9 9 9 19 0 11 -4 22 -9 25 -5 3 -8
-6 -8 -19z"/>
<path d="M5836 799 c2 -4 0 -10 -6 -14 -5 -3 -10 -14 -10 -23 0 -13 5 -12 20
8 24 30 25 37 5 37 -8 0 -12 -4 -9 -8z"/>
<path d="M3435 322 c-12 -32 2 -322 16 -322 5 0 10 69 11 153 l3 152 134 3
133 3 -6 -23 c-11 -44 -19 -288 -9 -288 6 0 13 44 17 98 4 53 9 127 13 164 l6
67 -157 3 c-123 2 -157 0 -161 -10z"/>
<path d="M3796 318 c-7 -24 -26 -311 -21 -316 14 -14 21 22 30 156 l10 147 39
3 c21 2 46 0 55 -4 18 -8 43 -8 114 0 31 4 46 2 42 -4 -3 -6 1 -13 10 -16 11
-5 15 -15 11 -38 -13 -86 -18 -246 -8 -246 6 0 13 19 16 42 9 75 21 255 18
269 -4 20 -310 27 -316 7z"/>
<path d="M2590 269 c-396 -22 -480 -31 -490 -50 -8 -13 -6 -20 5 -26 13 -8 20
-35 41 -160 3 -18 11 -33 18 -33 11 0 11 14 0 83 -22 133 -24 132 85 17 54
-58 101 -103 104 -100 3 3 -36 48 -88 100 -52 52 -95 98 -95 101 0 10 139 29
247 33 56 2 106 7 112 10 6 4 11 2 11 -4 0 -6 8 -9 18 -6 9 3 52 8 95 12 l79
6 -17 -32 c-9 -17 -14 -34 -11 -38 3 -3 6 -1 6 4 0 6 6 19 14 29 12 16 15 7
31 -81 10 -54 21 -108 26 -119 14 -35 10 46 -6 132 -8 43 -15 90 -15 106 0 20
-5 27 -17 26 -10 -1 -79 -5 -153 -10z"/>
<path d="M4660 220 c0 -5 5 -10 10 -10 6 0 10 5 10 10 0 6 -4 10 -10 10 -5 0
-10 -4 -10 -10z"/>
<path d="M4630 210 c0 -5 5 -10 10 -10 6 0 10 5 10 10 0 6 -4 10 -10 10 -5 0
-10 -4 -10 -10z"/>
<path d="M2666 115 c-9 -26 -7 -32 5 -12 6 10 9 21 6 23 -2 3 -7 -2 -11 -11z"/>
<path d="M2646 63 c-6 -14 -5 -15 5 -6 7 7 10 15 7 18 -3 3 -9 -2 -12 -12z"/>
</g>
</svg>
